<svg id="Layer_1" data-name="Layer 1" xmlns="http://www.w3.org/2000/svg" viewBox="-2 -3 73.68 74.12"><defs><style>.outline{fill:none;stroke:#000;stroke-width:3;stroke-linecap:round;stroke-linejoin:round;} .eyes{fill:#000;}</style></defs><path class="outline" d="M44,68.12c-3.22,0-6.26-2.15-8.84-6.21-2.57,4.06-5.62,6.21-8.83,6.21-4.85,0-9.3-4.92-12.21-13.52C5.49,51.69.56,47.24.56,42.39c0-3.21,2.15-6.25,6.21-8.83C2.71,31,.56,27.94.56,24.73c0-4.86,4.93-9.3,13.52-12.22C17,3.92,21.44-1,26.29-1c3.21,0,6.26,2.14,8.83,6.21C37.7,1.14,40.74-1,44-1c4.85,0,9.29,4.92,12.21,13.51,8.59,2.92,13.51,7.36,13.51,12.22,0,3.21-2.14,6.25-6.21,8.83,4.07,2.58,6.21,5.62,6.21,8.83,0,4.85-4.92,9.3-13.51,12.21C53.25,63.2,48.81,68.12,44,68.12Z"/><ellipse class="eyes" cx="24.97" cy="27.39" rx="3.81" ry="7.54"/><ellipse class="eyes" cx="47.01" cy="27.39" rx="3.81" ry="7.54"/><path class="outline" d="M21.6,44.49c1.4,2.5,6.6,5.41,13.69,5.41s12.29-2.91,13.69-5.41"/></svg>